HIERARCHY
ROOT Hips
{
	OFFSET 0.0000 0.0000 0.0000
	CHANNELS 6 Xposition Yposition Zposition Zrotation Xrotation Yrotation
	JOINT Ab
	{
		OFFSET -0.0000 8.1305 -0.0000
		CHANNELS 3 Zrotation Xrotation Yrotation
		JOINT Chest
		{
			OFFSET -0.0000 26.2902 -0.0000
			CHANNELS 3 Zrotation Xrotation Yrotation
			JOINT Neck
			{
				OFFSET -0.0000 26.2902 0.0000
				CHANNELS 3 Zrotation Xrotation Yrotation
				JOINT Head
				{
					OFFSET -0.0000 10.8167 0.0000
					CHANNELS 3 Zrotation Xrotation Yrotation
					End Site
					{
						OFFSET -0.0000 16.7167 0.0000
					}
				}
			}
			JOINT LeftCollar
			{
				OFFSET -0.0000 26.2902 0.0000
				CHANNELS 3 Zrotation Xrotation Yrotation
				JOINT LeftShoulder
				{
					OFFSET 19.6667 -0.0000 0.0000
					CHANNELS 3 Zrotation Xrotation Yrotation
					JOINT LeftElbow
					{
						OFFSET 27.2190 0.0000 0.0000
						CHANNELS 3 Zrotation Xrotation Yrotation
						JOINT LeftWrist
						{
							OFFSET 30.7431 0.0000 0.0000
							CHANNELS 3 Zrotation Xrotation Yrotation
							End Site
							{
								OFFSET 0.0000 -14.7500 0.0000
							}
						}
					}
				}
			}
			JOINT RightCollar
			{
				OFFSET -0.0000 26.2902 0.0000
				CHANNELS 3 Zrotation Xrotation Yrotation
				JOINT RightShoulder
				{
					OFFSET -19.6667 0.0000 0.0000
					CHANNELS 3 Zrotation Xrotation Yrotation
					JOINT RightElbow
					{
						OFFSET -27.2190 0.0000 0.0000
						CHANNELS 3 Zrotation Xrotation Yrotation
						JOINT RightWrist
						{
							OFFSET -30.7431 0.0000 0.0000
							CHANNELS 3 Zrotation Xrotation Yrotation
							End Site
							{
								OFFSET -0.0000 -14.7500 0.0000
							}
						}
					}
				}
			}
		}
	}
	JOINT LeftHip
	{
		OFFSET 11.8000 0.0000 0.0000
		CHANNELS 3 Zrotation Xrotation Yrotation
		JOINT LeftKnee
		{
			OFFSET -0.0000 -39.7832 0.0000
			CHANNELS 3 Zrotation Xrotation Yrotation
			JOINT LeftAnkle
			{
				OFFSET -0.0000 -41.7317 0.0000
				CHANNELS 3 Zrotation Xrotation Yrotation
				End Site
				{
					OFFSET -0.0000 -4.9167 16.7167
				}
			}
		}
	}
	JOINT RightHip
	{
		OFFSET -11.8000 0.0000 0.0000
		CHANNELS 3 Zrotation Xrotation Yrotation
		JOINT RightKnee
		{
			OFFSET -0.0000 -39.7832 0.0000
			CHANNELS 3 Zrotation Xrotation Yrotation
			JOINT RightAnkle
			{
				OFFSET -0.0000 -41.7317 0.0000
				CHANNELS 3 Zrotation Xrotation Yrotation
				End Site
				{
					OFFSET -0.0000 -4.9167 16.7167
				}
			}
		}
	}
}
MOTION
Frames: 21
Frame Time: 0.010000
-7.8686 94.2148 99.9816 354.2717 341.9902 189.7939 358.4619 351.0991 1.9074 0.4774 9.2533 1.9608 349.4097 339.7479 354.8393 3.7693 9.0217 356.4264 337.4551 357.3510 13.3260 325.4126 39.7928 359.6476 354.9228 2.9642 302.3053 89.8399 357.3740 334.9944 25.7419 356.1052 342.9599 34.8702 45.8593 9.7677 335.2615 342.3679 70.6079 266.9684 353.4595 0.6853 347.2143 336.5088 359.2871 0.0121 16.6994 0.2269 347.1328 348.5502 10.5877 350.1120 353.3259 5.6065 10.6158 19.8017 14.4618 353.4781 343.8543 315.5611 
-7.7200 94.2222 97.8446 354.3887 342.5139 190.0187 358.3841 351.1582 1.8687 0.2302 9.4006 1.9880 349.1210 339.6572 354.6909 4.3661 9.5980 356.2701 337.3628 357.3522 13.1344 325.3658 38.8339 0.8277 354.3817 3.3418 302.3370 90.2643 357.1362 334.6616 25.5990 356.0963 342.8073 35.1683 46.1186 9.6872 335.1410 342.1525 70.8052 267.2600 353.3951 359.8496 346.8302 337.0839 358.1032 359.9730 14.3026 0.4493 346.6944 348.2923 10.3949 350.3996 354.7496 4.9935 10.4613 20.1129 14.0458 355.0718 344.4630 316.8770 
-7.6235 94.1517 96.7024 354.4896 342.8110 190.1775 358.2573 351.1535 1.9038 0.1836 9.4656 2.0145 348.9787 339.7800 354.5529 4.6337 9.6157 356.1202 337.3457 357.3486 13.1870 325.2706 38.4581 1.3264 354.1036 3.4133 302.3724 90.0889 357.0443 334.1469 25.5176 356.0725 342.6810 35.2723 46.1431 9.6404 335.2285 342.2257 71.1033 266.9900 353.5683 359.2811 346.7461 337.1511 357.3309 359.8635 13.6794 0.7419 346.4794 348.2360 10.3500 350.6956 355.4679 5.0029 10.4866 20.4640 14.0761 355.2788 344.8079 316.9848 
-7.5156 94.0230 95.5339 354.6172 343.1490 190.3262 358.1642 351.1454 1.8982 0.0930 9.4667 2.0260 348.7622 339.9493 354.4229 5.0457 9.8437 355.9711 337.2542 357.3410 13.0663 325.3747 37.9983 1.9374 353.6827 3.6789 302.2514 89.9519 357.0679 333.7312 25.5242 356.0456 342.6178 35.5111 46.0735 9.2954 335.4274 342.3264 71.4390 266.9516 353.5756 359.0037 346.7382 337.2715 356.6138 359.8276 13.3276 1.3630 346.0730 348.4609 9.9848 351.0368 356.0728 4.9627 10.5155 21.1179 13.8968 355.5910 344.8964 317.2995 
-7.3799 93.8460 93.9457 354.7593 343.5891 190.4756 358.0039 351.1161 1.9168 0.0682 9.5015 2.0738 348.4385 340.2419 354.2769 5.5973 10.0864 355.7935 337.0723 357.3498 12.8588 325.5909 37.4137 2.6968 353.1374 4.0482 301.9983 89.6536 357.2601 333.2441 25.5235 356.0325 342.5374 35.7655 45.9730 8.9013 335.7048 342.4766 71.7328 266.9300 353.5248 358.7766 346.7674 337.6678 355.6398 359.7372 12.6101 1.8707 346.1204 348.4924 10.0403 351.3959 356.7604 4.8560 10.5673 22.1917 13.7829 356.2171 345.0496 317.7635 
-7.2648 93.5809 92.4547 354.8581 344.1360 190.5736 357.8628 351.1739 1.9382 359.9531 9.5725 2.1134 348.6219 340.5889 354.2198 5.6247 10.1143 355.6573 337.1500 357.3829 12.8608 325.5889 37.2630 3.0311 352.9237 4.0640 301.8736 89.1237 357.3114 332.7940 25.5871 356.0001 342.5111 36.1066 45.7541 8.3091 336.0940 342.7210 72.1490 266.6225 353.6153 358.7211 346.8212 338.2238 354.9005 359.6321 12.3145 2.1293 346.5743 348.4031 10.5013 351.6871 357.3149 4.8388 10.8108 23.7180 13.7424 356.3980 345.1130 318.1257 
-7.1642 93.3301 91.1018 354.9454 344.6523 190.6616 357.7425 351.2449 1.9304 359.8177 9.6122 2.1219 348.7840 340.8220 354.1888 5.7127 10.2921 355.5624 337.2377 357.3988 12.8922 325.5631 37.0993 3.3599 352.7561 4.1147 301.7817 88.6623 357.2679 332.4547 25.6383 355.9777 342.4804 36.3941 45.6129 7.8348 336.5132 342.9378 72.5132 266.4831 353.6903 358.8192 346.9022 338.7440 354.2353 359.5543 12.1448 2.5201 346.7368 348.4247 10.7514 351.9584 357.7880 4.7034 11.0431 25.2436 13.8217 356.4917 345.1792 318.4125 
-7.0790 93.0477 89.9766 355.0775 345.0561 190.7842 357.6446 351.3319 1.9490 359.7147 9.4797 2.1554 348.7829 340.9359 354.1375 5.9645 10.7066 355.4551 337.3279 357.4023 13.0035 325.5829 37.1804 3.5099 352.7311 4.0731 301.6744 87.8253 357.4537 331.9379 25.6602 355.9387 342.2329 36.4438 45.6048 7.7499 336.9155 343.1689 72.7104 266.5552 353.7951 358.9844 347.0436 339.0545 353.8424 359.4668 12.3401 2.8303 346.7034 348.2751 10.7406 352.2604 358.0185 4.5678 11.3787 26.8041 13.8764 356.9698 344.7862 318.4561 
-6.9703 92.6173 88.4975 355.2376 345.6441 190.9458 357.5655 351.5086 1.8922 359.5805 9.3468 2.1093 348.8726 341.3638 354.0817 6.1710 10.7984 355.3157 337.3435 357.4054 12.9485 325.7551 36.9649 3.8282 352.5166 4.2634 301.4511 87.1080 357.6120 331.3354 25.7185 355.8782 341.9509 36.5103 45.5798 7.5363 337.3831 343.5019 72.9015 266.5913 353.9365 359.1611 347.2490 339.7293 353.3726 359.3786 12.5122 2.7219 346.6625 348.1440 10.9727 352.5564 358.2291 4.3484 11.9119 29.1423 13.8977 357.0808 344.7133 318.8204 
-6.8202 91.7866 86.2740 355.4026 346.3646 190.9485 357.5911 351.4331 1.6902 359.2056 9.4802 1.9349 348.9607 342.2472 354.2451 6.6333 10.4315 355.3762 337.6367 357.4387 13.2035 325.9013 37.1091 3.7537 352.4891 4.2223 300.7864 86.6804 357.8889 331.0318 25.9514 355.8175 342.0152 36.6223 45.1104 6.8589 338.2949 344.3658 73.2600 266.4895 354.0550 358.9621 347.3743 340.6887 353.1808 359.6646 13.2628 1.8959 349.3829 350.4393 11.6160 352.6422 358.0137 4.1954 12.9945 33.2143 14.0588 357.1068 344.8451 319.2287 
-6.7242 91.1122 84.6807 355.5448 346.9762 190.9784 357.6165 351.5411 1.5645 358.9274 9.3453 1.8290 349.0294 343.1430 354.4359 6.8692 10.0462 355.4696 337.5901 357.3617 13.4032 326.2270 37.0003 3.8847 352.3196 4.4182 300.4628 89.1455 356.9591 332.4248 26.1988 355.7827 342.2298 36.6674 44.8652 6.1252 339.2005 344.9434 73.5869 266.7134 353.9643 359.6187 347.5697 340.9558 352.9979 359.5132 15.4113 1.4637 350.9383 349.9785 12.3232 352.6439 357.7953 3.9475 14.0279 36.4367 13.8205 357.2664 344.9760 319.7271 
-6.7408 90.9329 84.0828 355.4973 347.3435 190.9459 357.5382 351.5916 1.5524 358.7823 9.3591 1.8369 348.9416 343.4957 354.4998 7.1385 9.9413 355.4933 337.5404 357.3046 13.5318 326.1495 36.7606 4.1463 352.2596 4.4613 300.5701 89.7395 356.7996 332.4328 26.2599 355.8197 342.3670 36.5846 44.9324 6.0636 339.7624 345.0899 73.7416 267.1521 353.7800 0.5803 347.7167 341.2578 352.9412 359.1902 16.6821 2.2056 351.4714 349.3692 11.9626 352.5122 357.7661 3.4941 14.6588 38.0112 13.8109 357.6816 344.7344 320.0323 
-6.7847 90.4863 82.8084 355.1852 347.8676 190.7881 357.3384 351.6228 1.4399 358.1635 9.4537 1.7865 349.1609 344.1055 354.6237 7.3212 9.5356 355.5389 337.6017 357.2929 13.7528 326.2159 36.5373 4.1931 352.2955 4.3782 300.4182 89.8493 356.7235 332.4091 26.5260 355.7971 342.4754 36.5933 44.9164 5.7073 340.1946 345.3924 73.8435 267.3085 353.6967 1.0133 347.6663 341.7350 352.7018 358.9958 18.2914 0.7636 354.0886 349.5095 14.2685 351.7630 357.1368 2.8534 16.2781 41.7804 13.5061 358.5463 344.8750 320.6022 
-6.8292 90.0799 81.5862 354.7300 348.1926 190.5399 356.9705 351.5318 1.3229 357.5524 9.6289 1.7553 349.2711 344.4949 354.7181 7.5783 9.1133 355.5817 337.5453 357.2362 14.0926 326.5308 36.3819 3.9049 352.4144 4.2713 300.3356 89.8056 356.6718 332.4838 26.7790 355.7792 342.5453 36.5979 44.9357 5.5443 340.5178 345.6258 73.7934 267.4468 353.6477 1.4764 347.4643 342.3451 352.3639 358.4093 19.4612 0.9689 356.0050 349.4598 15.6347 350.6830 356.1612 2.2778 18.2849 45.5674 12.3472 359.6187 345.7140 321.6245 
-6.8574 89.7070 80.4398 354.3043 348.4010 190.3412 356.5860 351.4242 1.2344 357.0598 9.7768 1.7431 349.2259 344.8507 354.7661 7.8771 8.5145 355.6205 337.2275 357.1230 14.3708 327.1092 36.1292 3.5097 352.4758 4.2662 300.2713 89.4653 356.6759 332.3461 27.0237 355.7509 342.6152 36.5162 44.8639 5.4155 340.8554 345.9603 73.7076 267.4205 353.5772 1.7444 347.2442 342.9249 351.7236 357.8500 20.1871 1.4692 356.4786 348.8992 16.0136 349.5079 354.7991 1.2819 20.4128 49.4089 10.7019 0.3015 347.2456 322.6748 
-6.8525 89.2988 79.2789 353.9363 348.5713 190.2851 356.2310 351.4076 1.1041 356.6458 9.8417 1.6767 349.1861 344.8764 354.8092 7.9120 8.2465 355.6830 336.8749 357.0222 14.6227 327.8680 36.1097 2.8113 352.5929 4.1799 300.1380 89.3516 356.6578 332.0978 27.1437 355.7482 342.7595 37.0675 44.5012 4.6871 341.1706 346.2361 73.6438 267.7034 353.3168 2.0760 347.0550 343.3649 351.2061 357.3163 21.1503 1.5653 357.6837 348.4188 16.6578 348.4370 353.4674 0.5277 22.7198 52.7736 8.6605 0.1807 348.8620 323.2556 
-6.8440 88.8747 78.1100 353.5174 348.6166 190.3363 355.7737 351.4240 0.9240 356.3666 9.7622 1.5527 348.8952 344.8364 354.8432 8.1345 8.1865 355.7547 336.3225 356.8993 14.6552 328.7611 35.9477 2.2143 352.6059 4.2083 299.8146 89.6942 356.6391 331.9380 27.3932 355.7391 342.9289 37.5149 43.9254 3.7061 341.7018 346.6721 73.6445 267.8724 353.0359 2.5230 346.7832 343.6625 350.9314 356.9334 22.2207 1.2926 358.7290 347.9197 17.3554 347.3749 352.0008 359.8049 25.2454 55.9095 7.0677 359.4477 349.0794 322.5845 
-6.8509 88.3939 76.6829 352.9863 348.3663 190.4525 355.0964 351.2058 0.7401 356.1490 9.7741 1.4476 348.9622 344.7491 354.8015 7.8397 7.9912 355.7371 335.4326 356.7323 14.6464 330.2765 36.0164 0.8279 352.7992 4.0573 299.3803 90.2926 356.4475 331.9998 27.7735 355.6923 343.0226 37.9798 42.9437 2.4449 342.3838 347.3316 73.4532 267.7256 352.9117 2.9843 346.3197 343.8948 351.1769 356.8967 23.3249 1.0240 359.1189 346.9731 17.3442 346.0096 349.6793 358.8335 28.6826 59.5250 4.9735 357.9426 348.1217 320.9551 
-6.8662 88.0612 75.5203 352.6202 348.1994 190.5223 354.6367 351.0135 0.6647 355.9747 9.8593 1.4333 349.0879 344.6875 354.7596 7.4792 7.7281 355.7242 334.7550 356.6250 14.7564 331.4681 36.2749 359.3829 353.2468 3.7048 299.2638 90.5299 356.2305 331.9978 27.9996 355.6791 343.0658 38.3681 42.1725 1.5128 343.0316 347.8073 73.2859 267.8596 352.8648 3.5594 346.0594 344.2810 351.6468 356.9691 23.9172 0.9331 359.3947 346.3078 17.0021 344.9369 347.7871 357.7722 31.3019 62.2038 3.2873 356.4503 347.4354 319.6436 
-6.8726 87.9187 74.7802 352.5970 348.2267 190.5316 354.6948 350.9863 0.6689 355.7627 9.8644 1.4487 348.8745 344.6922 354.7139 7.5298 7.5658 355.7196 334.3854 356.5995 14.6601 331.8185 36.2900 358.8278 353.6310 3.4906 299.3712 90.6838 356.1606 331.8862 28.0970 355.6850 343.0574 38.5742 41.8727 1.0225 343.5264 348.0401 73.1951 268.1027 353.0331 4.4108 346.2211 344.8079 352.2102 357.1187 23.8946 0.8717 359.3084 345.9993 16.4457 344.4006 346.6561 356.9738 32.5035 63.4913 2.3846 355.9814 347.2578 319.0970 
-6.8263 87.6831 73.6598 352.6613 348.1788 190.6888 354.7834 350.8290 0.5698 355.5285 10.0753 1.3715 348.7815 344.5319 354.5968 7.3759 7.4450 355.6394 333.9390 356.5617 14.4591 332.4106 36.5512 357.7400 354.2219 3.0442 299.1429 91.4662 355.9943 332.1521 28.3008 355.6354 342.9089 38.7975 41.1733 0.3796 344.0921 348.5842 72.7647 267.8552 353.2004 5.3602 346.4279 345.3861 353.1362 357.5183 24.1183 0.5912 358.7509 345.1472 15.4731 343.7478 344.9561 356.1422 34.7750 64.9575 0.0404 355.5638 346.9683 318.6862 
